<?xml version="1.0" standalone="no"?>
<!DOCTYPE svg PUBLIC "-//W3C//DTD SVG 20010904//EN"
 "http://www.w3.org/TR/2001/REC-SVG-20010904/DTD/svg10.dtd">
<svg version="1.0" xmlns="http://www.w3.org/2000/svg"
 width="2000.000000pt" height="2000.000000pt" viewBox="0 0 2000.000000 2000.000000"
 preserveAspectRatio="xMidYMid meet">
<metadata>
Created by potrace 1.11, written by Peter Selinger 2001-2013
</metadata>
<g transform="translate(0.000000,2000.000000) scale(0.100000,-0.100000)"
fill="#000000" stroke="none">
<path d="M6200 19082 c-50 -3 -251 -28 -289 -36 -611 -130 -1073 -543 -1349
-1206 -100 -242 -201 -617 -237 -885 -3 -27 -9 -66 -11 -85 -3 -19 -7 -51 -9
-70 -5 -52 -15 -149 -20 -195 -27 -253 -27 -911 0 -1220 2 -27 7 -81 10 -120
3 -38 8 -88 10 -110 2 -22 7 -67 10 -100 3 -33 7 -71 9 -85 2 -14 7 -52 10
-85 4 -33 8 -71 10 -85 3 -14 7 -50 11 -80 4 -30 8 -62 10 -70 1 -8 5 -39 9
-69 4 -30 9 -64 11 -75 2 -12 7 -38 10 -58 14 -99 16 -116 26 -163 6 -27 12
-68 15 -90 3 -22 33 -175 66 -340 34 -165 61 -309 62 -319 1 -19 -45 -34 -184
-60 -46 -9 -211 -46 -358 -82 -81 -19 -154 -37 -162 -39 -8 -1 -35 -8 -60 -15
-25 -7 -52 -13 -60 -15 -34 -7 -323 -89 -430 -122 -63 -19 -142 -43 -175 -53
-183 -55 -654 -226 -800 -291 -11 -4 -82 -36 -159 -69 -229 -100 -510 -243
-683 -346 -17 -10 -53 -32 -80 -48 -100 -60 -392 -262 -413 -285 -3 -4 -39
-33 -80 -66 -122 -96 -342 -309 -399 -385 -14 -19 -28 -37 -31 -40 -56 -53
-237 -330 -280 -428 -5 -13 -21 -47 -35 -77 -54 -119 -116 -334 -129 -450 -3
-27 -8 -61 -11 -75 -6 -30 -7 -296 -1 -325 2 -11 7 -47 11 -80 22 -190 95
-418 197 -612 180 -347 403 -612 813 -968 17 -14 100 -79 185 -144 253 -192
542 -376 860 -548 215 -115 245 -126 350 -121 135 7 225 57 301 169 22 33 37
59 33 59 -3 0 -2 6 4 13 11 13 26 96 25 142 -1 84 -40 187 -92 243 -29 31
-105 92 -116 92 -3 0 -57 28 -118 62 -62 34 -132 72 -157 86 -74 41 -268 160
-375 231 -93 61 -347 245 -377 274 -7 6 -45 39 -83 71 -102 87 -292 279 -361
366 -194 243 -283 423 -332 670 -9 47 -9 232 1 297 11 81 55 210 103 303 55
105 55 105 135 215 210 285 585 574 1079 832 118 62 179 91 404 193 248 112
708 276 1076 383 333 98 878 231 1114 273 16 3 32 7 36 9 3 2 16 -38 29 -88
13 -51 36 -132 51 -182 15 -49 34 -115 43 -145 69 -245 254 -814 372 -1145 56
-158 226 -612 250 -670 7 -16 40 -99 73 -182 l61 -153 -33 -62 c-188 -356
-566 -1113 -566 -1134 0 -2 -21 -48 -46 -101 -26 -54 -61 -132 -79 -173 -18
-41 -44 -100 -58 -130 -14 -30 -68 -158 -121 -285 -53 -126 -102 -241 -108
-255 -6 -14 -12 -27 -12 -30 -1 -3 -9 -24 -18 -45 -10 -22 -38 -94 -64 -160
-25 -66 -56 -147 -69 -180 -40 -102 -96 -255 -138 -375 -74 -212 -139 -405
-152 -450 -7 -25 -27 -90 -45 -145 -87 -274 -204 -700 -256 -935 -3 -13 -14
-61 -24 -106 -11 -45 -22 -97 -25 -116 -3 -18 -10 -51 -15 -73 -5 -22 -12 -56
-15 -75 -3 -19 -10 -53 -15 -75 -8 -38 -13 -62 -24 -130 -3 -16 -12 -73 -21
-125 -9 -52 -18 -106 -20 -120 -2 -14 -6 -43 -9 -65 -4 -22 -8 -56 -10 -75 -8
-60 -17 -134 -21 -165 -2 -16 -7 -66 -10 -110 -4 -44 -8 -96 -11 -115 -18
-175 -25 -663 -11 -858 72 -997 426 -1672 1057 -2014 62 -34 202 -98 224 -103
6 -1 18 -5 26 -8 90 -34 264 -74 400 -91 115 -14 429 -15 535 -1 56 7 209 32
240 38 11 2 36 7 55 11 64 11 138 29 245 60 470 132 996 381 1550 733 192 122
375 247 444 302 91 73 135 170 135 301 1 76 -2 92 -31 151 -67 135 -188 216
-331 221 -112 3 -145 -12 -415 -192 -212 -141 -316 -205 -587 -365 -46 -28
-394 -201 -460 -229 -656 -285 -1177 -353 -1560 -205 -177 68 -347 204 -458
367 -100 147 -204 410 -247 623 -28 136 -42 244 -61 453 -12 139 -5 663 11
744 1 10 6 51 10 92 10 119 14 153 20 190 2 19 7 58 11 85 3 28 9 75 14 105 5
30 12 73 15 95 22 158 98 536 146 730 17 66 32 127 34 135 67 291 242 862 393
1285 85 238 247 663 282 740 5 11 45 106 89 210 84 201 221 510 291 660 236
500 304 636 311 627 4 -4 53 -106 109 -227 425 -916 972 -1929 1489 -2760 58
-93 110 -178 116 -188 20 -34 171 -265 328 -502 152 -228 199 -297 395 -573
614 -866 1311 -1692 1966 -2330 133 -130 134 -131 271 -257 183 -167 199 -181
354 -310 20 -16 38 -32 41 -35 15 -17 264 -211 380 -297 123 -91 431 -302 455
-312 6 -2 27 -15 48 -28 21 -13 53 -32 70 -42 18 -11 70 -41 117 -68 178 -103
483 -244 680 -314 170 -61 443 -129 576 -144 231 -27 441 -26 614 1 66 10 75
12 160 32 147 35 322 107 446 182 36 22 68 40 70 40 3 0 10 5 17 10 7 6 44 34
82 62 158 117 313 284 442 478 50 75 187 332 220 415 32 80 88 238 109 310 12
44 27 95 33 113 5 17 8 32 5 32 -3 0 0 8 5 18 5 9 11 31 14 47 3 17 12 62 21
100 22 104 25 118 46 255 19 123 24 167 35 285 3 33 8 74 10 90 25 204 25 884
0 1172 -2 23 -6 84 -10 135 -4 51 -9 104 -10 118 -2 14 -6 57 -10 95 -4 39 -8
81 -10 95 -2 14 -6 50 -10 80 -9 83 -16 132 -20 160 -2 14 -7 43 -9 65 -11 83
-27 193 -42 280 -20 121 -22 134 -29 180 -4 22 -10 58 -15 80 -5 22 -12 56
-15 75 -51 303 -201 955 -310 1345 -51 183 -113 399 -135 470 -100 324 -259
813 -279 860 -5 11 -28 74 -51 140 -96 274 -316 856 -375 990 -7 17 -34 80
-58 140 -211 519 -591 1346 -653 1421 -161 198 -474 181 -610 -32 -57 -89 -78
-208 -53 -299 6 -22 72 -170 146 -330 143 -308 165 -356 193 -420 9 -22 27
-62 40 -90 46 -103 60 -135 145 -335 88 -208 310 -762 359 -900 15 -41 32 -84
37 -95 5 -11 16 -40 25 -65 9 -25 36 -101 61 -170 102 -287 222 -642 290 -865
91 -299 200 -679 238 -835 3 -8 18 -69 35 -135 63 -248 158 -677 205 -930 11
-63 64 -372 69 -405 9 -64 27 -195 31 -220 2 -14 7 -47 10 -75 3 -27 10 -84
15 -125 16 -133 26 -229 35 -351 4 -47 8 -104 10 -125 7 -78 18 -413 18 -544
0 -127 -11 -415 -18 -470 -1 -14 -6 -63 -10 -110 -4 -47 -9 -94 -11 -105 -2
-11 -6 -40 -9 -65 -27 -222 -119 -595 -180 -727 -8 -17 -15 -34 -15 -37 0 -4
-22 -51 -49 -107 -97 -197 -227 -362 -371 -471 -63 -49 -215 -127 -275 -143
-16 -5 -32 -9 -35 -10 -101 -28 -176 -37 -308 -37 -103 0 -137 3 -227 19 -16
3 -41 6 -55 8 -47 5 -195 44 -290 75 -331 111 -690 300 -1070 565 -111 77
-263 189 -286 210 -6 6 -23 19 -38 30 -16 11 -33 25 -40 30 -6 6 -31 26 -56
45 -25 19 -47 37 -50 40 -3 3 -50 43 -105 89 -92 77 -148 126 -319 281 -77 69
-578 570 -671 670 -97 104 -225 247 -266 295 -19 22 -39 45 -45 50 -9 9 -85
97 -145 169 -13 16 -29 34 -34 40 -18 20 -240 290 -281 341 -21 27 -43 55 -49
61 -5 6 -19 23 -30 38 -11 16 -25 33 -30 40 -63 69 -508 668 -642 864 -18 26
-36 52 -41 58 -47 54 -408 604 -689 1050 -74 117 -363 602 -456 764 -63 110
-263 472 -317 575 -36 66 -88 165 -117 220 -64 120 -433 858 -485 970 -20 44
-60 130 -89 190 -111 237 -319 713 -319 729 0 10 240 438 321 571 13 23 29 50
36 60 41 71 222 369 248 410 18 28 88 138 155 245 121 192 439 674 540 820
131 187 358 506 442 621 51 69 113 154 138 187 l45 61 70 2 c297 6 928 -2
1280 -16 213 -8 385 -16 455 -20 41 -3 116 -7 165 -10 190 -11 322 -20 440
-30 33 -3 89 -7 125 -10 154 -12 188 -15 235 -20 28 -3 77 -7 110 -10 76 -6
260 -25 300 -30 77 -10 125 -15 180 -20 33 -3 92 -10 130 -15 39 -5 95 -12
125 -15 30 -3 62 -8 70 -10 8 -2 44 -7 80 -10 36 -4 74 -9 85 -11 11 -2 39 -6
62 -9 24 -3 75 -10 115 -15 40 -6 91 -13 113 -16 22 -3 51 -7 65 -10 14 -2 57
-9 95 -14 39 -6 77 -12 85 -15 8 -2 35 -7 60 -10 25 -4 60 -9 79 -11 32 -5 43
-7 101 -18 14 -3 41 -8 60 -10 19 -3 62 -10 95 -16 33 -6 74 -13 90 -16 17 -2
41 -7 55 -10 14 -3 36 -8 50 -10 14 -3 48 -9 76 -15 28 -5 64 -12 80 -15 16
-2 64 -11 107 -20 42 -8 90 -18 105 -20 15 -3 65 -14 112 -24 82 -18 110 -24
168 -35 70 -14 395 -91 557 -131 99 -25 187 -47 195 -49 16 -4 190 -51 295
-80 33 -9 98 -27 145 -41 47 -14 99 -29 115 -34 193 -52 856 -274 1012 -339
26 -11 80 -32 118 -46 143 -54 357 -144 520 -217 125 -56 533 -257 575 -283
19 -12 70 -40 113 -63 42 -23 125 -71 183 -107 59 -36 110 -65 114 -65 5 0 10
-3 12 -7 2 -5 41 -33 88 -63 399 -259 749 -583 945 -875 52 -78 145 -263 170
-339 29 -88 46 -189 50 -286 11 -313 -127 -603 -430 -905 -282 -282 -698 -550
-1201 -775 -190 -85 -186 -83 -304 -130 -160 -65 -235 -121 -283 -215 -44 -86
-51 -206 -18 -299 35 -101 99 -171 201 -220 59 -28 74 -31 160 -30 90 0 101 3
205 46 61 26 128 54 150 63 22 9 54 22 70 30 17 7 64 27 105 45 84 36 395 191
480 238 30 17 73 41 95 53 180 99 514 325 645 438 14 12 50 43 80 68 92 79
281 273 353 363 38 47 95 126 128 175 33 50 64 95 69 102 24 30 142 288 170
372 32 96 59 202 66 256 2 17 8 59 13 95 17 112 7 400 -18 520 -42 204 -89
336 -187 528 -226 444 -635 869 -1224 1273 -347 239 -894 534 -1355 733 -110
48 -209 91 -220 96 -11 5 -45 19 -75 31 -30 11 -68 27 -85 34 -16 7 -86 34
-155 60 -69 25 -136 51 -150 57 -130 54 -708 244 -1050 345 -93 27 -474 132
-503 138 -11 2 -89 22 -175 44 -162 41 -430 104 -632 147 -63 14 -124 27 -135
30 -36 7 -57 12 -266 53 -214 42 -238 46 -304 57 -22 3 -42 7 -45 9 -3 2 -26
6 -50 10 -25 3 -79 12 -120 20 -41 8 -92 17 -112 20 -70 10 -113 16 -138 21
-14 2 -41 7 -60 9 -19 3 -44 7 -55 10 -11 2 -42 7 -70 10 -27 4 -57 8 -65 10
-8 3 -35 7 -60 10 -25 3 -56 7 -69 10 -13 2 -49 7 -80 11 -31 3 -59 8 -62 10
-4 2 -37 6 -75 9 -38 3 -76 8 -84 10 -26 7 -377 50 -575 71 -27 2 -66 7 -85 9
-19 3 -60 7 -90 10 -30 3 -77 7 -105 10 -92 10 -139 15 -205 20 -36 3 -85 7
-110 10 -25 2 -83 7 -130 10 -47 4 -101 9 -121 10 -20 2 -79 7 -130 10 -52 3
-114 8 -139 10 -25 2 -99 7 -165 10 -66 4 -145 8 -175 10 -30 2 -120 7 -200
10 -80 4 -183 8 -230 10 -141 7 -505 17 -675 19 -88 1 -159 6 -158 10 1 7 222
275 253 307 8 9 35 40 60 70 50 60 236 273 290 333 40 44 53 58 156 172 41 45
86 94 101 110 88 97 362 382 503 522 156 155 463 451 480 462 4 3 49 43 100
90 121 111 127 116 196 175 32 28 65 57 74 65 9 8 40 35 70 60 30 25 64 53 75
63 40 37 352 285 465 370 63 48 120 90 125 94 35 28 179 130 299 211 123 83
501 322 511 322 2 0 32 16 67 36 106 61 407 210 518 257 244 103 524 192 698
222 17 3 47 8 65 11 152 26 407 30 532 8 395 -69 659 -304 829 -736 49 -124
115 -410 132 -568 3 -30 7 -71 10 -90 7 -65 17 -274 17 -395 0 -128 -12 -430
-18 -455 -2 -8 -6 -51 -9 -95 -4 -44 -8 -89 -10 -101 -2 -11 -7 -50 -10 -86
-4 -37 -9 -76 -11 -88 -5 -23 -24 -154 -31 -210 -2 -19 -16 -96 -30 -170 -14
-74 -27 -163 -29 -197 -14 -241 205 -433 445 -391 74 13 130 41 191 96 82 74
112 156 158 432 6 36 13 74 15 85 2 11 7 40 10 65 3 25 8 54 10 65 2 11 7 45
11 75 4 30 9 62 10 70 1 8 6 47 10 85 4 39 8 77 10 85 7 37 19 185 30 360 15
228 9 702 -10 855 -2 17 -6 50 -9 75 -12 100 -18 146 -22 165 -2 11 -9 49 -15
85 -6 36 -18 92 -26 125 -8 33 -16 67 -18 75 -18 92 -96 323 -153 450 -82 185
-166 323 -293 480 -255 314 -679 555 -1064 606 -27 3 -53 8 -56 10 -12 7 -192
18 -294 18 -101 0 -279 -10 -325 -18 -14 -3 -45 -7 -70 -10 -35 -4 -199 -36
-310 -61 -33 -8 -237 -67 -275 -80 -155 -53 -276 -98 -312 -115 -24 -11 -45
-20 -48 -20 -2 0 -28 -11 -57 -24 -29 -13 -80 -36 -113 -51 -212 -95 -628
-322 -782 -427 -23 -15 -44 -28 -47 -28 -4 0 -218 -139 -242 -157 -5 -4 -17
-12 -26 -18 -70 -45 -428 -303 -438 -314 -3 -4 -30 -25 -60 -46 -30 -22 -64
-47 -75 -57 -11 -9 -78 -63 -150 -119 -71 -57 -132 -106 -135 -109 -3 -3 -48
-41 -100 -85 -52 -43 -106 -89 -120 -101 -14 -12 -86 -75 -160 -140 -74 -65
-140 -123 -146 -129 -6 -5 -62 -57 -124 -115 -395 -366 -814 -792 -1195 -1215
-49 -55 -92 -102 -95 -105 -3 -3 -55 -61 -114 -130 -60 -69 -120 -139 -135
-155 -14 -17 -84 -100 -156 -185 -71 -85 -132 -157 -135 -160 -3 -3 -43 -52
-90 -110 -46 -58 -89 -110 -95 -116 -5 -6 -23 -28 -40 -49 -47 -61 -125 -159
-138 -175 -7 -8 -33 -42 -59 -75 l-46 -61 -99 -2 c-54 -2 -138 -5 -188 -7 -49
-3 -139 -7 -200 -10 -60 -2 -139 -7 -175 -10 -36 -2 -110 -7 -165 -11 -98 -5
-140 -8 -260 -18 -33 -3 -96 -8 -140 -11 -44 -3 -98 -8 -120 -10 -22 -3 -70
-7 -106 -10 -37 -3 -82 -7 -100 -10 -19 -2 -65 -7 -104 -10 -38 -3 -83 -7
-100 -10 -16 -2 -55 -7 -85 -10 -30 -3 -66 -7 -80 -9 -14 -3 -56 -7 -95 -11
-38 -4 -77 -8 -85 -10 -8 -2 -37 -6 -65 -9 -49 -6 -246 -33 -315 -42 -19 -3
-46 -7 -60 -9 -14 -3 -43 -7 -65 -10 -22 -3 -52 -8 -66 -11 -25 -5 -27 -2 -39
58 -6 35 -14 70 -16 78 -7 28 -103 515 -113 575 -9 50 -52 326 -66 430 -12 83
-35 268 -40 330 -3 39 -8 86 -10 105 -3 19 -7 71 -10 115 -3 44 -8 103 -10
130 -23 260 -23 850 -1 1050 2 17 6 65 10 107 4 42 9 87 11 99 2 11 6 40 9 63
59 496 241 958 476 1209 209 224 453 321 780 312 210 -6 347 -32 580 -112 221
-76 588 -255 747 -364 23 -16 44 -29 48 -29 21 0 581 -402 650 -467 57 -54
171 -131 217 -148 73 -28 193 -26 268 3 239 93 318 393 157 595 -27 33 -230
201 -342 283 -22 16 -42 32 -45 35 -8 10 -248 181 -345 246 -279 186 -587 356
-850 468 -60 25 -119 50 -130 55 -58 26 -331 113 -393 125 -9 1 -35 8 -57 13
-163 44 -470 74 -635 64z m1138 -6112 c-337 -479 -696 -1025 -1016 -1550 -53
-85 -105 -171 -116 -191 -12 -20 -37 -64 -57 -99 l-37 -62 -22 58 c-66 177
-201 558 -270 764 -95 287 -251 793 -285 927 -8 34 -18 69 -21 77 -4 10 8 16
48 21 29 4 60 9 69 10 9 2 40 6 70 10 30 3 61 8 69 10 8 2 40 7 70 10 30 3 66
8 80 10 14 2 50 6 80 10 30 3 66 8 80 10 14 2 54 7 90 11 36 3 72 8 81 9 9 2
52 6 95 10 43 3 86 8 94 10 8 2 51 7 95 10 44 3 91 8 105 10 22 4 103 11 235
20 60 4 205 16 245 20 19 2 94 6 165 10 72 4 132 9 134 11 2 2 6 2 8 0 3 -2
-38 -64 -89 -136z"/>
<path d="M9855 10969 c-327 -65 -602 -262 -769 -548 -56 -97 -108 -229 -123
-311 -2 -14 -9 -43 -15 -65 -22 -86 -19 -286 7 -436 24 -135 130 -358 225
-474 62 -76 189 -191 264 -240 214 -139 423 -198 681 -190 64 2 119 6 124 9 5
3 28 8 52 11 65 8 210 60 301 106 315 163 548 482 605 830 10 57 10 300 1 365
-45 310 -251 621 -526 794 -103 64 -271 132 -362 146 -19 3 -53 9 -74 14 -69
15 -294 9 -391 -11z"/>
</g>
</svg>
